# xmcd
#
# Track frame offsets: 
#        183
#        20600
#        36835
#        52623
#        65545
#        81660
#        97863
#        112810
#        128965
#        144558
#        157580
#        174963
#
# Disc length: 2559 seconds
#
# Revision: 11
# Processed by: cddbd v1.5.2PL0 Copyright (c) Steve Scherf et al.
# Submitted via: ExactAudioCopy v0.95b2
#
DISCID=8d09fd0c
DTITLE=Linda Ronstadt (featuring Aaron Neville) - Cry Like a Rainstorm
DTITLE=Various Artist - Howl Like the Wind
DYEAR=1989
DGENRE=Pop
TTITLE0=Still Within The Sound Of My Voice
TTITLE1=Cry Like A Rainstorm
TTITLE2=All My Life
TTITLE3=I Need You
TTITLE4=Don't Know Much
TTITLE5=Adios
TTITLE6=Trouble Again
TTITLE7=I Keep It Hid
TTITLE8=So Right, So Wrong
TTITLE9=Shattered
TTITLE10=When Something Is Wrong With My Baby
TTITLE11=Goodbye My Friend
EXTD=YEAR: 1989 ID3G: 80
EXTT0=
EXTT1=
EXTT2=
EXTT3=
EXTT4=
EXTT5=
EXTT6=
EXTT7=
EXTT8=
EXTT9=
EXTT10=
EXTT11=
PLAYORDER=
